<?xml version="1.0" standalone="no"?>
<!DOCTYPE svg PUBLIC "-//W3C//DTD SVG 20010904//EN"
 "http://www.w3.org/TR/2001/REC-SVG-20010904/DTD/svg10.dtd">
<svg version="1.0" xmlns="http://www.w3.org/2000/svg"
 width="3296.000000pt" height="3296.000000pt" viewBox="0 0 3296.000000 3296.000000"
 preserveAspectRatio="xMidYMid meet">
<metadata>
Created by potrace 1.14, written by Peter Selinger 2001-2017
</metadata>
<g transform="translate(0.000000,3296.000000) scale(0.100000,-0.100000)"
fill="#000000" stroke="none">
<path d="M15289 24617 l-424 -394 -273 -409 -272 -410 -119 -455 c-65 -251
-122 -465 -125 -477 -5 -15 -97 -73 -299 -188 l-292 -167 -330 -394 -330 -393
-626 -408 -627 -407 -541 -614 -542 -614 -434 -331 -433 -331 -732 -335 -731
-335 -280 -540 -280 -540 -484 -520 c-266 -286 -482 -521 -481 -523 5 -4 611
301 1171 588 3255 1674 4968 2352 6545 2594 953 146 1785 210 2740 210 759 0
1337 -35 1970 -120 2318 -310 4326 -1117 6115 -2458 807 -604 1599 -1356 2270
-2153 157 -186 150 -179 126 -113 -10 30 -134 380 -275 778 l-256 722 -518
603 -518 602 -384 242 c-212 132 -419 263 -460 290 l-74 48 -241 399 -240 399
-296 206 c-163 113 -321 223 -350 243 l-54 36 -425 61 c-234 34 -434 64 -446
66 -11 3 -221 219 -465 481 l-444 476 -285 688 -286 688 -467 416 -467 416
-353 -294 c-347 -290 -356 -298 -620 -584 l-268 -289 -159 -76 c-88 -42 -160
-75 -160 -74 0 1 -130 359 -288 796 l-287 794 -447 281 -448 281 -448 532
-448 531 -487 436 c-269 240 -489 436 -491 436 -2 0 -194 -177 -427 -393z"/>
<path d="M16885 17433 c-1234 -36 -2632 -218 -3985 -519 -916 -204 -1933 -522
-4250 -1329 -2949 -1027 -3804 -1299 -4895 -1555 -737 -173 -1631 -343 -2182
-415 -29 -4 -55 -10 -58 -14 -2 -5 35 -20 83 -34 590 -179 1707 -265 2952
-227 1790 55 3799 289 6340 740 595 105 883 153 1305 214 2351 341 4706 427
7030 255 3253 -240 6407 -1013 9000 -2206 247 -114 793 -383 953 -470 45 -24
82 -43 82 -40 0 4 -316 286 -567 506 -84 74 -153 136 -153 138 0 5 169 -132
319 -261 l116 -98 -70 72 c-38 40 -175 173 -302 295 -1882 1809 -3704 3063
-5608 3862 -1759 737 -3645 1101 -5655 1091 -201 -1 -405 -3 -455 -5z"/>
<path d="M23673 11295 c-186 -33 -332 -104 -444 -215 -124 -123 -179 -255
-179 -430 0 -160 46 -278 149 -380 121 -120 246 -175 576 -257 333 -82 411
-110 472 -175 100 -104 51 -250 -107 -322 -217 -98 -582 -21 -824 175 -48 39
-91 67 -96 63 -30 -34 -241 -336 -238 -343 2 -4 25 -27 51 -50 173 -149 394
-243 644 -276 379 -50 705 24 895 204 120 112 183 251 195 424 15 229 -67 402
-245 521 -121 80 -260 130 -546 196 -276 65 -390 110 -431 174 -39 59 -28 149
26 211 136 154 588 100 834 -101 31 -25 59 -44 61 -41 2 2 60 78 129 167 l125
164 -22 23 c-32 34 -154 116 -228 153 -84 42 -183 76 -295 101 -121 27 -387
34 -502 14z"/>
<path d="M25668 11299 c-209 -24 -426 -113 -577 -236 -132 -107 -133 -86 15
-257 69 -80 128 -146 131 -146 3 0 32 25 65 54 68 62 180 124 283 156 99 31
279 39 361 15 80 -23 147 -67 183 -122 37 -56 45 -94 39 -184 -16 -212 -202
-404 -910 -933 l-238 -178 0 -179 0 -179 815 0 815 0 0 200 0 200 -452 2 -453
3 140 104 c439 326 645 559 726 821 48 155 23 362 -60 506 -111 192 -339 322
-623 354 -96 11 -152 11 -260 -1z"/>
<path d="M4467 11268 c-2 -7 -190 -492 -417 -1078 -227 -586 -414 -1068 -417
-1073 -2 -4 111 -6 253 -5 l257 3 67 180 67 180 485 3 485 2 68 -185 69 -185
253 0 c140 0 252 3 250 8 -2 4 -190 492 -418 1084 l-414 1078 -291 0 c-224 0
-293 -3 -297 -12z m477 -898 l174 -485 -179 -3 c-98 -1 -259 -1 -357 0 l-178
3 178 490 c97 270 178 492 178 495 2 8 1 10 184 -500z"/>
<path d="M6100 10194 l0 -1085 528 4 c439 3 539 7 602 20 448 99 736 367 842
784 20 77 23 112 22 283 -1 177 -3 204 -27 292 -116 434 -458 718 -937 777
-48 6 -288 11 -557 11 l-473 0 0 -1086z m1085 647 c172 -56 292 -156 364 -302
61 -125 76 -191 76 -344 0 -143 -18 -222 -76 -336 -69 -138 -207 -254 -362
-306 -80 -27 -89 -27 -354 -31 l-273 -3 0 676 0 677 278 -4 c255 -4 282 -6
347 -27z"/>
<path d="M8143 11273 c3 -5 190 -487 417 -1073 227 -586 415 -1071 417 -1077
4 -10 73 -13 297 -13 l291 0 417 1083 417 1082 -261 3 c-161 1 -264 -1 -268
-7 -3 -6 -138 -379 -300 -830 -162 -451 -296 -818 -298 -816 -3 2 -138 374
-302 827 l-297 823 -267 3 c-147 1 -265 -1 -263 -5z"/>
<path d="M10600 10195 l0 -1085 765 0 765 0 0 200 0 200 -535 0 -535 0 0 250
0 250 525 0 525 0 0 200 0 200 -525 0 -525 0 0 235 0 235 535 0 535 0 0 200 0
200 -765 0 -765 0 0 -1085z"/>
<path d="M12500 10195 l0 -1085 230 0 230 0 2 724 3 725 514 -725 514 -724
223 0 224 0 0 1085 0 1085 -230 0 -230 0 -2 -700 -3 -700 -500 700 -500 699
-237 1 -238 0 0 -1085z"/>
<path d="M14740 11075 l0 -205 320 0 320 0 0 -880 0 -880 230 0 230 0 0 880 0
880 315 0 315 0 0 205 0 205 -865 0 -865 0 0 -205z"/>
<path d="M16763 10538 c4 -807 3 -786 62 -944 100 -266 315 -435 635 -499 108
-22 337 -30 450 -16 433 54 681 261 777 651 14 56 17 167 20 808 l4 742 -236
0 -235 0 0 -682 c0 -748 -1 -762 -59 -876 -77 -153 -241 -242 -446 -242 -240
0 -407 114 -483 329 -14 40 -17 134 -19 759 l-4 712 -235 0 -235 0 4 -742z"/>
<path d="M19140 10196 l0 -1086 230 0 230 0 0 390 0 390 168 0 169 0 210 -387
211 -388 266 -3 c146 -1 266 -1 266 1 0 2 -108 187 -240 411 -132 224 -240
408 -240 410 0 2 28 14 63 26 191 70 339 237 388 440 20 81 17 298 -5 380 -50
184 -176 341 -336 418 -159 77 -144 75 -797 79 l-583 4 0 -1085z m1091 658
c112 -52 173 -146 173 -269 0 -123 -61 -217 -173 -269 -43 -20 -64 -21 -338
-24 l-293 -3 0 296 0 296 293 -3 c274 -3 295 -4 338 -24z"/>
<path d="M21240 10195 l0 -1085 765 0 765 0 0 200 0 200 -535 0 -535 0 0 250
0 250 525 0 525 0 0 200 0 200 -525 0 -525 0 0 235 0 235 535 0 535 0 0 200 0
200 -765 0 -765 0 0 -1085z"/>
<path d="M27726 11213 c-24 -38 -220 -344 -435 -682 l-391 -614 0 -179 0 -178
520 0 520 0 0 -225 0 -225 230 0 230 0 0 225 0 225 140 0 140 0 0 200 0 200
-140 0 -140 0 0 660 0 660 -315 0 -315 0 -44 -67z m214 -798 l0 -455 -296 0
c-163 0 -294 4 -292 8 5 12 583 902 586 902 1 0 2 -205 2 -455z"/>
</g>
</svg>
